<?xml version="1.0" encoding="UTF-8"?>
<svg version="1.1" xmlns="http://www.w3.org/2000/svg" width="2000" height="2000">
<path d="M0 0 C660 0 1320 0 2000 0 C2000 660 2000 1320 2000 2000 C1340 2000 680 2000 0 2000 C0 1340 0 680 0 0 Z " fill="#FEFAEA" transform="translate(0,0)"/>
<path d="M0 0 C184.47 0 368.94 0 559 0 C559 131.34 559 262.68 559 398 C374.53 398 190.06 398 0 398 C0 266.66 0 135.32 0 0 Z " fill="#FEFAEA" transform="translate(549,506)"/>
<path d="M0 0 C78.87 0 157.74 0 239 0 C239 237.27 239 474.54 239 719 C-24.34 719 -287.68 719 -559 719 C-559 666.2 -559 613.4 -559 559 C-532.6 559 -506.2 559 -479 559 C-479 585.4 -479 611.8 -479 639 C-268.46 639 -57.92 639 159 639 C159 454.53 159 270.06 159 80 C106.53 80 54.06 80 0 80 C0 53.6 0 27.2 0 0 Z " fill="#000000" transform="translate(1188,505)"/>
<path d="M0 0 C26.4 0 52.8 0 80 0 C80 131.34 80 262.68 80 398 C53.6 398 27.2 398 0 398 C0 266.66 0 135.32 0 0 Z " fill="#000000" transform="translate(1028,506)"/>
<path d="M0 0 C26.4 0 52.8 0 80 0 C80 131.34 80 262.68 80 398 C53.6 398 27.2 398 0 398 C0 266.66 0 135.32 0 0 Z " fill="#000000" transform="translate(549,506)"/>
<path d="M0 0 C131.67 0 263.34 0 399 0 C399 26.07 399 52.14 399 79 C267.33 79 135.66 79 0 79 C0 52.93 0 26.86 0 0 Z " fill="#000000" transform="translate(629,905)"/>
<path d="M0 0 C131.67 0 263.34 0 399 0 C399 26.07 399 52.14 399 79 C267.33 79 135.66 79 0 79 C0 52.93 0 26.86 0 0 Z " fill="#000000" transform="translate(629,426)"/>
<path d="M0 0 C0.73619064 -0.00902847 1.47238129 -0.01805695 2.23088074 -0.02735901 C3.78840065 -0.04185825 5.34598143 -0.05074745 6.90356445 -0.05444336 C9.27465922 -0.06631458 11.64312838 -0.11547362 14.01367188 -0.16601562 C15.52993527 -0.17548357 17.04621459 -0.18271683 18.5625 -0.1875 C19.61749443 -0.21679848 19.61749443 -0.21679848 20.69380188 -0.24668884 C26.38658836 -0.19509207 28.62923351 1.48696947 32.48046875 5.37109375 C34.85749515 8.93663335 34.72387798 10.44980736 34.70751953 14.6784668 C34.70727783 15.99778198 34.70703613 17.31709717 34.70678711 18.6763916 C34.69671601 20.07853382 34.68638285 21.48067419 34.67578125 22.8828125 C34.67376709 24.15757446 34.67175293 25.43233643 34.66967773 26.74572754 C34.65919795 31.51671944 34.63127548 36.28766013 34.60546875 41.05859375 C34.56421875 51.72171875 34.52296875 62.38484375 34.48046875 73.37109375 C64.84046875 73.37109375 95.20046875 73.37109375 126.48046875 73.37109375 C126.24328094 52.29433508 126.24328094 52.29433508 125.93994141 31.21850586 C125.92241266 28.57016449 125.90712454 25.92180694 125.89453125 23.2734375 C125.87885101 22.59261612 125.86317078 21.91179474 125.84701538 21.21034241 C125.57099183 8.5846255 125.57099183 8.5846255 129.39208984 4.00219727 C133.26892482 0.30709701 136.48990658 0.18819864 141.68359375 0.1328125 C142.3990033 0.12474075 143.11441284 0.11666901 143.85150146 0.10835266 C145.36793599 0.09451417 146.88440163 0.08379095 148.40087891 0.07592773 C150.70796769 0.05876118 153.01360557 0.01488251 155.3203125 -0.02929688 C156.7955624 -0.03942837 158.27082447 -0.04794305 159.74609375 -0.0546875 C160.77298309 -0.08094963 160.77298309 -0.08094963 161.82061768 -0.10774231 C166.84234937 -0.08527068 169.66830899 1.14851774 173.48046875 4.37109375 C176.53036805 8.44558569 176.85846209 11.46339012 176.8681488 16.4997406 C176.87622711 17.55948053 176.87622711 17.55948053 176.88446862 18.64062935 C176.89874758 21.00205312 176.89164489 23.36291628 176.88452148 25.72436523 C176.8902251 27.41978404 176.89718933 29.115199 176.90531921 30.81060791 C176.92326675 35.41186296 176.92207924 40.01292748 176.91637683 44.61420703 C176.91328727 48.45622382 176.91937484 52.29820389 176.92541558 56.14021546 C176.93946444 65.20426648 176.93789651 74.26822326 176.92651367 83.33227539 C176.91503188 92.68169334 176.92910831 102.03082446 176.95591015 111.38020462 C176.97806474 119.40922804 176.98470507 127.4381614 176.97883373 135.46721321 C176.9754624 140.26176036 176.97789095 145.05612363 176.99508476 149.85064507 C177.01054799 154.35939894 177.00660536 158.8677278 176.98777962 163.37646484 C176.984092 165.03004436 176.98720727 166.68365533 176.99766541 168.33720589 C177.01086599 170.59711477 176.99933798 172.85561468 176.98167419 175.11546326 C176.98146491 176.3791999 176.98125563 177.64293653 176.98104 178.94496822 C176.38445579 183.02824789 175.05116911 185.1783118 172.48046875 188.37109375 C166.35127606 192.41915935 159.80991634 191.9293777 152.74047852 191.92700195 C150.5511204 191.9335693 148.36629256 191.98812411 146.17773438 192.04492188 C134.4785994 192.18452969 134.4785994 192.18452969 130.0390625 188.4609375 C126.38678752 184.54612356 126.3577894 181.77047419 126.36694336 176.44287109 C126.36682282 175.71904047 126.36670229 174.99520985 126.3665781 174.24944496 C126.36732564 171.90194267 126.37494662 169.55451937 126.3828125 167.20703125 C126.38428241 165.75952187 126.38530282 164.31201197 126.38586426 162.86450195 C126.39111142 157.49169112 126.40507257 152.11889166 126.41796875 146.74609375 C126.43859375 134.74234375 126.45921875 122.73859375 126.48046875 110.37109375 C96.12046875 110.37109375 65.76046875 110.37109375 34.48046875 110.37109375 C34.59916383 133.84129015 34.59916383 133.84129015 34.75073242 157.3112793 C34.76428223 161.85900879 34.76428223 161.85900879 34.76679993 163.99055481 C34.77139529 165.4736959 34.78192305 166.95682605 34.79719543 168.43989563 C34.81921532 170.69149127 34.82218484 172.94240431 34.82104492 175.1940918 C34.82770676 176.462061 34.83436859 177.73003021 34.8412323 179.03642273 C34.30064413 184.03327928 32.55855074 186.46986045 28.75390625 189.65039062 C24.91600527 191.66780755 22.42399303 191.8870143 18.10546875 191.90234375 C17.41791504 191.90617065 16.73036133 191.90999756 16.02197266 191.91394043 C14.57648239 191.91664765 13.13094214 191.90937003 11.68554688 191.89257812 C9.48585743 191.87114625 7.28943287 191.89241499 5.08984375 191.91796875 C3.67837828 191.91532526 2.26691483 191.91019982 0.85546875 191.90234375 C-1.05105469 191.89557617 -1.05105469 191.89557617 -2.99609375 191.88867188 C-8.01573742 191.15130737 -11.1187964 189.2389077 -14.16529083 185.17655087 C-15.86241166 181.66077949 -15.90249413 179.10534515 -15.91394043 175.20448303 C-15.92003153 174.49390619 -15.92612264 173.78332935 -15.93239832 173.05121988 C-15.94901503 170.67599145 -15.94425459 168.30129989 -15.93945312 165.92602539 C-15.94679421 164.22075342 -15.95538056 162.51548641 -15.96511841 160.81022644 C-15.9873381 156.18212409 -15.9902649 151.55419975 -15.9883709 146.92605138 C-15.98825122 143.06166453 -15.99681391 139.19731544 -16.00514841 135.33293909 C-16.02438382 126.21615579 -16.02726567 117.09946405 -16.02050781 107.98266602 C-16.01386536 98.5786675 -16.03673926 89.17506105 -16.07382154 79.77114207 C-16.10451052 71.69540745 -16.11587949 63.61979901 -16.11198473 55.54400724 C-16.10991654 50.72146416 -16.11540733 45.89922621 -16.13987732 41.07673836 C-16.16212893 36.54165524 -16.16028003 32.00721005 -16.1399498 27.4721241 C-16.13653701 25.80886338 -16.14164048 24.14555984 -16.15593338 22.48235703 C-16.17411955 20.20905708 -16.16138517 17.93792293 -16.14099121 15.66468811 C-16.14170372 14.39357713 -16.14241623 13.12246614 -16.14315033 11.81283665 C-15.31358428 7.23447599 -13.77700741 5.65377168 -10.51953125 2.37109375 C-6.90454244 -0.03889879 -4.18440275 0.03163184 0 0 Z " fill="#FF851B" transform="translate(280.51953125,1376.62890625)"/>
<path d="M0 0 C12.23617737 11.48289918 19.69866831 27.73939427 20.55932617 44.59960938 C20.7522214 69.5390962 19.77751702 92.23315721 1.80078125 111.3984375 C-13.83114778 126.82569315 -34.36577209 131.94148273 -55.77539062 131.93920898 C-58.05097809 131.941373 -60.3260621 131.95948722 -62.6015625 131.97851562 C-85.70192143 132.06886967 -105.91756717 126.82278315 -122.83203125 110.40234375 C-124.77335307 108.53537043 -126.63447096 106.89928562 -128.734375 105.24609375 C-137.55040209 97.54112761 -139.73642718 84.94305832 -140.5859375 73.75390625 C-141.8545587 47.92085185 -140.59583689 24.27221709 -123.6640625 3.3828125 C-94.25005299 -28.51922412 -31.62291279 -27.4670315 0 0 Z " fill="#FF851C" transform="translate(624.5859375,1438.24609375)"/>
<path d="M0 0 C26.73 0 53.46 0 81 0 C81 52.8 81 105.6 81 160 C107.07 160 133.14 160 160 160 C160 186.4 160 212.8 160 240 C133.6 240 107.2 240 80 240 C80 213.6 80 187.2 80 160 C53.6 160 27.2 160 0 160 C0 107.2 0 54.4 0 0 Z " fill="#030303" transform="translate(788,585)"/>
<path d="M0 0 C10.28938269 9.12013466 16.14713086 20.61381025 17.17580414 34.34706497 C17.45995421 40.93813832 17.4206836 47.53314915 17.3984375 54.12890625 C17.40046186 56.25308838 17.4033763 58.37726982 17.40713501 60.50144958 C17.41153266 64.92657163 17.40520448 69.35151071 17.39111328 73.77661133 C17.37392833 79.44938543 17.3839374 85.12173656 17.40183067 90.79449558 C17.41265752 95.1687694 17.40922884 99.54294236 17.4014473 103.91721916 C17.39944713 106.01001982 17.40189812 108.10282964 17.40888596 110.19561958 C17.41649257 113.11056074 17.40491143 116.02480793 17.38818359 118.93969727 C17.39425629 119.80256348 17.40032898 120.66542969 17.40658569 121.55444336 C17.36928914 125.05714436 17.33195203 127.3782502 15.66323853 130.50376892 C11.07145366 134.63448807 3.58441347 133.26289583 -2.2512207 133.29516602 C-3.70704856 133.30670859 -5.16283335 133.32719667 -6.6184082 133.35668945 C-8.72376201 133.39934461 -10.82786167 133.41552823 -12.93359375 133.42578125 C-14.19228271 133.44036377 -15.45097168 133.45494629 -16.74780273 133.4699707 C-20 133 -20 133 -22.36352539 131.20776367 C-24.50638278 128.3168403 -25.19722661 125.47868468 -26 122 C-26.94359375 122.53109375 -27.8871875 123.0621875 -28.859375 123.609375 C-49.78397233 135.19732936 -74.4088291 139.49620876 -98.0625 133.375 C-111.2209709 129.3273246 -124.72297818 122.32251743 -133 111 C-137.93274824 101.39412184 -137.60689486 84.81729301 -134.9375 74.5 C-130.4783916 62.48518014 -121.25487401 54.4386272 -110.0625 48.75 C-92.46042899 41.41859093 -74.62143382 41.48566497 -55.8125 41.75 C-53.29754042 41.77011578 -50.78256513 41.78835748 -48.26757812 41.8046875 C-42.17803559 41.84823308 -36.08909404 41.91473441 -30 42 C-30.1129347 39.92777079 -30.23922422 37.85626672 -30.37109375 35.78515625 C-30.43997803 34.63152588 -30.5088623 33.47789551 -30.57983398 32.28930664 C-31.17654598 27.61789422 -32.65734875 24.31813302 -36 21 C-43.12789766 16.24806822 -49.83012295 15.76550912 -58.1875 15.6875 C-59.20392578 15.65849609 -60.22035156 15.62949219 -61.26757812 15.59960938 C-68.81261047 15.53628761 -74.28436282 16.68428463 -79.99609375 21.78125 C-80.95595682 22.92580218 -81.9142953 24.07163469 -82.87109375 25.21875 C-90.17764373 31.33212026 -98.05711684 31.62450858 -107.25 31.5 C-108.98636719 31.52320313 -108.98636719 31.52320313 -110.7578125 31.546875 C-115.47055655 31.52510713 -118.99948144 31.49366904 -123.26171875 29.390625 C-126.76885563 24.56732664 -125.68619465 18.66745955 -125 13 C-124.09633588 9.9429235 -122.83988712 7.58924512 -121 5 C-120.319375 3.989375 -119.63875 2.97875 -118.9375 1.9375 C-93.53267421 -26.30714015 -27.513167 -22.58863127 0 0 Z " fill="#FF861C" transform="translate(1414,1435)"/>
<path d="M0 0 C13.81888682 11.70828514 20.8238658 27.24088156 23 45 C23.31701299 49.33795219 23.41400871 53.65150121 23.4375 58 C23.48680664 59.65708984 23.48680664 59.65708984 23.53710938 61.34765625 C23.54419922 62.40855469 23.55128906 63.46945312 23.55859375 64.5625 C23.57877563 65.98755859 23.57877563 65.98755859 23.59936523 67.44140625 C23 70 23 70 21.08895874 72.13153076 C16.69566302 74.78897574 13.01920128 74.53081764 7.97729492 74.45410156 C6.97194702 74.45468567 5.96659912 74.45526978 4.93078613 74.45587158 C1.61366029 74.45308882 -1.70256272 74.42198672 -5.01953125 74.390625 C-7.32166554 74.38316332 -9.62380618 74.37747004 -11.9259491 74.37347412 C-17.98088156 74.3582122 -24.03542934 74.318925 -30.09020996 74.2746582 C-36.2703735 74.23371789 -42.45059928 74.21546572 -48.63085938 74.1953125 C-60.75407513 74.15243176 -72.87700556 74.08417321 -85 74 C-84.38615201 76.40530499 -83.76541609 78.80847362 -83.140625 81.2109375 C-82.96869629 81.88761475 -82.79676758 82.56429199 -82.61962891 83.26147461 C-80.44746185 91.56117339 -77.59785909 96.62425524 -70.16015625 100.9921875 C-59.67812512 105.88253837 -44.55610202 106.01502692 -33.5625 102.4375 C-29.51818648 100.6278629 -26.70018903 98.2199526 -23.92578125 94.78125 C-16.96523925 88.34310162 -9.42791243 88.38231851 -0.3125 88.5 C0.89728516 88.48453125 2.10707031 88.4690625 3.35351562 88.453125 C5.10245117 88.46085937 5.10245117 88.46085937 6.88671875 88.46875 C8.46779419 88.47551758 8.46779419 88.47551758 10.08081055 88.48242188 C13.72084824 89.12780783 15.40754244 90.40343906 18 93 C19.37005781 99.47150836 18.92457604 106.20629451 15.75 112.0625 C14.86253863 113.39492123 13.94900143 114.71068611 13 116 C12.443125 116.886875 11.88625 117.77375 11.3125 118.6875 C7.70366949 122.29633051 3.47147438 124.59125934 -1 127 C-1.70125 127.38414062 -2.4025 127.76828125 -3.125 128.1640625 C-17.36967566 135.23244322 -34.62745933 135.21607763 -50.20141602 135.29516602 C-51.76303203 135.30663068 -53.32461058 135.32699428 -54.88598633 135.35668945 C-69.11303271 135.62569139 -83.51736696 134.24934917 -96.3125 127.4375 C-96.9614624 127.10379395 -97.6104248 126.77008789 -98.27905273 126.42626953 C-104.09623149 123.267821 -108.781604 119.1829471 -113.4453125 114.52734375 C-115.53474266 112.46027752 -117.60379515 110.70530646 -119.9375 108.9375 C-128.8778704 101.4145054 -130.87157875 87.68607425 -131.81835938 76.72509766 C-133.45510679 52.1694865 -132.60827091 27.83816466 -116.22338867 8.07568359 C-88.55327371 -22.97616731 -32.31686071 -24.66819932 0 0 Z " fill="#FF851C" transform="translate(1709,1435)"/>
<path d="M0 0 C1.1758667 0.00137466 1.1758667 0.00137466 2.37548828 0.0027771 C4.02968414 0.00880785 5.68386935 0.02453827 7.33789062 0.04931641 C9.86629591 0.08581186 12.39323385 0.0903357 14.921875 0.08984375 C16.53126263 0.09967614 18.14064036 0.11133368 19.75 0.125 C20.5042627 0.12722565 21.25852539 0.12945129 22.03564453 0.13174438 C28.81541855 0.25401115 28.81541855 0.25401115 31.875 2.4609375 C34.42331806 6.28341459 34.16027693 9.38271254 34.14624023 13.81274414 C34.15146698 14.66518707 34.15669373 15.51763 34.16207886 16.39590454 C34.17232588 18.24888834 34.17810048 20.10190098 34.17996025 21.95491219 C34.18362262 24.89426706 34.20034894 27.83328411 34.22071838 30.77256775 C34.27612141 39.1304595 34.30671638 47.48840246 34.33129883 55.84643555 C34.34724317 60.95933747 34.37754203 66.07200308 34.41606331 71.18478203 C34.42766154 73.12746087 34.4336432 75.07018213 34.43374443 77.01289558 C34.1247882 94.84629479 34.1247882 94.84629479 41.875 110.4609375 C49.54982004 116.37694461 57.51168934 116.27881705 66.875 115.4609375 C74.74075125 113.23496982 81.46681766 108.41128458 87.875 103.4609375 C88.8999205 102.78405884 89.924841 102.10718018 90.9808197 101.40979004 C92.85163588 99.83129762 93.7487573 98.90628107 94.42082405 96.53544617 C94.61849198 94.14968397 94.62554961 91.82895409 94.56860352 89.43554688 C94.57120178 88.53576614 94.57380005 87.63598541 94.57647705 86.7089386 C94.5781895 84.75988968 94.56609559 82.81079032 94.54174995 80.8618927 C94.50355501 77.77631257 94.50184158 74.69259659 94.50950623 71.60681152 C94.51883367 65.05789512 94.47990381 58.50969087 94.4375 51.9609375 C94.39280076 44.37164435 94.36782145 36.78298135 94.38206291 29.19355774 C94.37894472 26.15468087 94.34520857 23.1171412 94.30995178 20.07849121 C94.30883016 18.21443717 94.30903849 16.35038168 94.31079102 14.48632812 C94.29273911 13.64254105 94.27468719 12.79875397 94.25608826 11.92939758 C94.29232357 7.6458812 94.49983776 5.95361699 97.17893982 2.43530273 C100.70535141 -0.14714127 103.63271741 -0.22816105 107.84375 -0.1328125 C108.60167847 -0.13285278 109.35960693 -0.13289307 110.14050293 -0.13293457 C111.73747076 -0.12759079 113.33443894 -0.11005655 114.93115234 -0.08105469 C117.36768443 -0.0391882 119.8014499 -0.03998991 122.23828125 -0.046875 C123.79428993 -0.03638145 125.35028444 -0.02344245 126.90625 -0.0078125 C127.63034058 -0.00761108 128.35443115 -0.00740967 129.10046387 -0.00720215 C133.50702135 0.09527593 136.36781292 0.75008429 139.875 3.4609375 C141.16731391 6.04556533 141.00380434 7.90441313 141.00871277 10.7996521 C141.01511024 12.49897133 141.01511024 12.49897133 141.02163696 14.23262024 C141.02118378 15.48149521 141.02073059 16.73037018 141.02026367 18.01708984 C141.02362228 19.32768875 141.0269809 20.63828766 141.03044128 21.98860168 C141.03929203 25.58988129 141.04161987 29.19113715 141.04225707 32.79242659 C141.04320552 35.79691432 141.04688313 38.8013965 141.05042917 41.8058821 C141.05857803 48.89402842 141.06101303 55.98216203 141.06030273 63.0703125 C141.05970201 70.38548892 141.07025168 77.70059158 141.0860464 85.01574934 C141.09911711 91.29266151 141.10448682 97.56954956 141.10384732 103.84647524 C141.10359217 107.59690925 141.10645276 111.34727774 141.11702538 115.09769821 C141.12849444 119.28051554 141.12396241 123.46316742 141.11791992 127.64599609 C141.12353943 128.8908226 141.12915894 130.13564911 141.13494873 131.41819763 C141.13075424 132.55671677 141.12655975 133.6952359 141.12223816 134.86825562 C141.12278293 135.85750723 141.12332769 136.84675884 141.12388897 137.86598778 C140.86495696 140.56564759 140.31084392 142.17871592 138.875 144.4609375 C135.3488007 147.10993608 131.23660285 146.80090526 127.00390625 146.83203125 C125.86489113 146.84557396 125.86489113 146.84557396 124.7028656 146.85939026 C123.10004607 146.87386883 121.49716776 146.88277355 119.89428711 146.88647461 C117.44869145 146.89838301 115.00561124 146.94759512 112.56054688 146.99804688 C111.00001226 147.00751073 109.43946222 147.01474595 107.87890625 147.01953125 C107.15167862 147.03906357 106.42445099 147.05859589 105.67518616 147.07872009 C101.73496873 147.04388412 100.03056034 146.58424503 96.90527344 144.10693359 C94.50095169 140.97345126 94.32825285 139.53694024 94.5625 135.6484375 C94.63017578 134.18470703 94.63017578 134.18470703 94.69921875 132.69140625 C94.75722656 131.95535156 94.81523438 131.21929688 94.875 130.4609375 C94.070625 131.0796875 94.070625 131.0796875 93.25 131.7109375 C88.04438975 135.54665032 82.68882777 138.78318819 76.9375 141.7109375 C76.30650391 142.03964844 75.67550781 142.36835937 75.02539062 142.70703125 C65.24726246 147.56142112 55.78055615 148.96872248 44.9375 148.8984375 C43.84759766 148.91841797 42.75769531 148.93839844 41.63476562 148.95898438 C26.61189198 148.95005813 14.04289499 143.10347324 3.23046875 132.89453125 C-7.88290424 121.4125555 -12.25348381 106.90396225 -12.30200195 91.14428711 C-12.30857315 90.21363937 -12.31514435 89.28299164 -12.32191467 88.32414246 C-12.34157858 85.25385451 -12.35329086 82.18361517 -12.36328125 79.11328125 C-12.36735678 78.06373323 -12.3714323 77.01418522 -12.37563133 75.93283272 C-12.39645608 70.38450443 -12.41077699 64.83620066 -12.42016602 59.2878418 C-12.431262 53.55203396 -12.46570884 47.81661069 -12.50533772 42.08093929 C-12.53143447 37.67236086 -12.53985135 33.26387541 -12.54344749 28.85522652 C-12.54832634 26.74007106 -12.55997703 24.62492011 -12.57848549 22.50984001 C-12.60274353 19.55564255 -12.60193706 16.60245919 -12.5949707 13.64819336 C-12.60778076 12.77275879 -12.62059082 11.89732422 -12.63378906 10.99536133 C-12.58307812 5.10888362 -12.58307812 5.10888362 -10.32658386 1.917099 C-7.0329925 -0.26133309 -3.81372344 -0.0726632 0 0 Z " fill="#FF851C" transform="translate(682.125,1421.5390625)"/>
<path d="M0 0 C6.94112341 5.5951261 12.06770792 13.51171637 13.6171875 22.34375 C14.34274195 33.38479592 14.34274195 33.38479592 11.6171875 37.34375 C6.57070779 40.54809219 0.63750184 39.75265263 -5.1328125 39.78125 C-6.2878125 39.81412109 -7.4428125 39.84699219 -8.6328125 39.88085938 C-15.84212416 39.92612332 -20.94338091 39.3097122 -26.3828125 34.34375 C-28.7109375 31.625 -28.7109375 31.625 -30.6328125 28.84375 C-35.45923203 22.80257285 -39.75519348 19.85964905 -47.3828125 18.34375 C-59.18518147 17.20052073 -69.96376873 17.4915542 -80.6328125 23.03125 C-87.93091216 29.16828835 -90.75521946 38.20731748 -92.3828125 47.34375 C-93.43925185 62.36558898 -94.13031169 80.95214562 -84.85546875 93.80078125 C-78.77655796 100.16993181 -70.94559408 102.29662884 -62.359375 102.6796875 C-50.14390391 102.88527431 -40.2886357 102.6378646 -30.89453125 93.98828125 C-28.92981138 91.85095033 -27.37318841 89.56108926 -25.9140625 87.0546875 C-22.59680765 83.34816295 -19.33389695 81.58739126 -14.45800781 80.97851562 C-11.04895909 80.84211296 -7.6689474 80.84743733 -4.2578125 80.90625 C-3.09121094 80.89916016 -1.92460938 80.89207031 -0.72265625 80.88476562 C10.23982527 80.96638777 10.23982527 80.96638777 14.6171875 85.34375 C15.56878307 97.6412927 13.35848125 106.71131828 5.6171875 116.34375 C-5.98746739 129.29963183 -26.50519653 134.34596404 -43.30006409 135.55349731 C-46.22483663 135.6528751 -49.14390262 135.69905729 -52.0703125 135.71484375 C-53.13467529 135.72387222 -54.19903809 135.7329007 -55.2956543 135.74220276 C-57.52747837 135.75659456 -59.75934357 135.76556409 -61.99121094 135.76928711 C-65.37507714 135.78122272 -68.75713974 135.83055371 -72.140625 135.88085938 C-93.16719757 136.04058333 -93.16719757 136.04058333 -102.3828125 130.34375 C-103.03701172 129.96694092 -103.69121094 129.59013184 -104.36523438 129.2019043 C-108.20734398 126.85733936 -111.7928652 124.05510494 -115.3828125 121.34375 C-116.51203125 120.51230469 -116.51203125 120.51230469 -117.6640625 119.6640625 C-131.40043899 108.70766697 -138.43253821 91.36466588 -140.3828125 74.34375 C-141.89859658 50.06254142 -140.50351853 26.07976626 -124.0078125 6.78125 C-119.56857187 2.25094802 -114.80195651 -1.37730445 -109.3828125 -4.65625 C-108.13177734 -5.44128906 -108.13177734 -5.44128906 -106.85546875 -6.2421875 C-76.62511429 -23.33079533 -28.14141675 -19.56059131 0 0 Z " fill="#FF851C" transform="translate(1119.3828125,1434.65625)"/>
<path d="M0 0 C0.78012451 -0.00619858 1.56024902 -0.01239716 2.36401367 -0.01878357 C4.00796261 -0.02586495 5.65198351 -0.02273706 7.29589844 -0.01000977 C9.80538267 0.00386689 12.31114233 -0.03024478 14.8203125 -0.06835938 C16.42187591 -0.06931059 18.02344396 -0.06745162 19.625 -0.0625 C20.37096436 -0.07575821 21.11692871 -0.08901642 21.88549805 -0.10267639 C25.51320095 -0.03811461 27.70082361 0.49700977 30.79370117 2.41894531 C33.78059609 7.07574169 33.43734803 11.13499821 33.30078125 16.5546875 C33.29370651 17.61302292 33.28663177 18.67135834 33.27934265 19.76176453 C33.25140219 23.13487062 33.18866121 26.50630371 33.125 29.87890625 C33.09991682 32.16859578 33.07710369 34.45831139 33.05664062 36.74804688 C33.00157681 42.3547354 32.9179533 47.96045129 32.8125 53.56640625 C34.03356445 53.54545898 35.25462891 53.52451172 36.51269531 53.50292969 C41.04496524 53.43050466 45.57718407 53.38459737 50.10986328 53.34667969 C52.07121381 53.32656993 54.03250444 53.29927807 55.99365234 53.26464844 C58.81362695 53.21610204 61.63280865 53.19343139 64.453125 53.17578125 C65.76739471 53.14481354 65.76739471 53.14481354 67.10821533 53.11322021 C73.12664096 53.11100425 73.12664096 53.11100425 76.36425781 55.26074219 C78.09115127 58.01003109 78.32784337 59.61406653 78.34375 62.84765625 C78.35148437 64.35779297 78.35148437 64.35779297 78.359375 65.8984375 C78.34390625 66.94386719 78.3284375 67.98929688 78.3125 69.06640625 C78.33570313 70.63455078 78.33570313 70.63455078 78.359375 72.234375 C78.35421875 73.24113281 78.3490625 74.24789063 78.34375 75.28515625 C78.33923828 76.20232422 78.33472656 77.11949219 78.33007812 78.06445312 C77.66036751 81.30180898 76.32350701 82.4867954 73.8125 84.56640625 C70.48094749 86.2321825 66.74713941 85.68648481 63.0859375 85.6640625 C61.79171371 85.66194008 61.79171371 85.66194008 60.47134399 85.65977478 C57.7100277 85.65416813 54.94879188 85.64161452 52.1875 85.62890625 C50.3177095 85.62389211 48.44791774 85.61932905 46.578125 85.61523438 C41.98955223 85.60419654 37.40103977 85.58692745 32.8125 85.56640625 C32.8797869 93.35886499 32.96970532 101.15083331 33.07495117 108.94287109 C33.10809222 111.59059814 33.1361574 114.23839399 33.15893555 116.88623047 C33.19268017 120.70439831 33.24500788 124.52194168 33.30078125 128.33984375 C33.30717117 129.51316254 33.3135611 130.68648132 33.32014465 131.89535522 C33.46230763 139.94219212 34.04452599 148.25542564 39 154.94140625 C46.3558225 161.80684058 52.84712637 161.93717861 62.40625 161.67382812 C64.74577997 161.59270404 67.08478427 161.50300999 69.42382812 161.40893555 C71.7043496 161.32453343 73.98416538 161.27050694 76.265625 161.21875 C76.96359192 161.18039536 77.66155884 161.14204071 78.38067627 161.1025238 C82.04363625 161.02816343 83.51362306 161.29131008 86.2487793 163.80883789 C88.60632531 167.96629023 88.43595215 171.38384678 88.375 176.06640625 C88.41077148 177.32904297 88.41077148 177.32904297 88.44726562 178.6171875 C88.43656814 183.14578886 88.29302313 184.97732892 85.33984375 188.59765625 C84.50582031 189.24734375 83.67179687 189.89703125 82.8125 190.56640625 C82.4825 190.89640625 82.1525 191.22640625 81.8125 191.56640625 C71.92151981 193.8669083 61.92382527 193.90803241 51.82836914 193.88208008 C49.25038824 193.87890673 46.6735443 193.90251663 44.09570312 193.92773438 C26.93465355 193.99374317 12.79489925 191.04936594 0.00390625 178.87890625 C-6.15396346 172.3807621 -8.74743831 165.09063922 -11.1875 156.56640625 C-11.52963028 155.47201233 -11.87176056 154.37761841 -12.22425842 153.25006104 C-13.74216978 147.08708831 -13.49069847 140.81290148 -13.49389648 134.50292969 C-13.5015286 133.08953417 -13.50995789 131.67614278 -13.51911926 130.26275635 C-13.54095172 126.44489325 -13.54984645 122.62711015 -13.55494571 118.8091917 C-13.55859888 116.4224294 -13.56484351 114.03568779 -13.5719471 111.64893341 C-13.59639038 103.31900619 -13.60948498 94.98914093 -13.61303711 86.65917969 C-13.61668124 78.89726041 -13.64665202 71.13573436 -13.68844169 63.37393546 C-13.72310349 56.70199088 -13.73858473 50.03017713 -13.73928314 43.35814309 C-13.74007656 39.37626932 -13.74884651 35.39479787 -13.77728081 31.41301727 C-13.80339563 27.67321449 -13.80570453 23.93414989 -13.78962517 20.19429779 C-13.78693823 18.16736733 -13.80903255 16.14045163 -13.83181763 14.11364746 C-13.82205399 12.9080719 -13.81229034 11.70249634 -13.80223083 10.46038818 C-13.80424216 9.41256039 -13.80625349 8.36473259 -13.80832577 7.28515244 C-13.1875 4.56640625 -13.1875 4.56640625 -10.88613987 2.23137283 C-7.29150553 0.01360894 -4.10140512 -0.02726998 0 0 Z " fill="#FF851C" transform="translate(1477.1875,1376.43359375)"/>
<path d="M0 0 C7.99011975 -0.29303618 7.99011975 -0.29303618 12.0078125 2.0703125 C16.10971295 6.87943717 15.08200023 12.44760253 15.1328125 18.5078125 C15.17631836 20.22000977 15.17631836 20.22000977 15.22070312 21.96679688 C15.28480268 30.40328491 15.28480268 30.40328491 12.92578125 34.42578125 C9.12442136 37.62061618 6.64349474 37.27856521 1.72265625 37.1875 C0.26628328 37.16996095 -1.19009742 37.1530549 -2.64648438 37.13671875 C-4.93503462 37.10596063 -7.22319275 37.07070077 -9.51147461 37.02392578 C-20.46691873 36.81180035 -29.28013317 37.30109514 -38.7421875 43.3828125 C-39.58910156 43.91261719 -40.43601562 44.44242188 -41.30859375 44.98828125 C-42.25605469 45.71660156 -43.20351562 46.44492188 -44.1796875 47.1953125 C-44.83933502 47.61063736 -45.49898254 48.02596222 -46.17861938 48.45387268 C-49.33332287 50.8630957 -51.70277774 53.15763549 -52.63509178 57.14110374 C-53.36990301 63.16988145 -53.1677521 69.24432533 -53.07421875 75.3046875 C-53.07412006 77.27907673 -53.07798089 79.25346977 -53.08561707 81.22784424 C-53.09703159 86.40858309 -53.06346321 91.58798043 -53.0177002 96.76849365 C-52.95100556 105.07325168 -52.94862029 113.37814068 -52.95438194 121.6831131 C-52.94928122 124.58168859 -52.92239031 127.47945511 -52.89253235 130.37786865 C-52.88589376 132.15132452 -52.87977713 133.92478245 -52.87426758 135.69824219 C-52.85326241 136.90614159 -52.85326241 136.90614159 -52.83183289 138.13844299 C-52.83611671 141.39580741 -52.9490284 143.76770493 -54.51127625 146.66387939 C-58.06155951 149.92268103 -62.4538374 149.38817904 -66.98828125 149.43359375 C-67.75141129 149.4416655 -68.51454132 149.44973724 -69.30079651 149.45805359 C-70.91380556 149.47187117 -72.52684357 149.48260371 -74.13989258 149.49047852 C-76.60489065 149.50772646 -79.06855893 149.55163447 -81.53320312 149.59570312 C-83.10155266 149.60582771 -84.66991356 149.61434455 -86.23828125 149.62109375 C-86.97380722 149.63860184 -87.70933319 149.65610992 -88.46714783 149.67414856 C-91.96554649 149.65933143 -93.81754175 149.47826497 -96.61352539 147.29370117 C-99.12324398 143.93110861 -99.31011125 142.02244746 -99.33358765 137.86332703 C-99.34218811 136.7318927 -99.35078857 135.60045837 -99.35964966 134.43473816 C-99.36390961 133.18743423 -99.36816956 131.94013031 -99.37255859 130.6550293 C-99.38073608 129.34603668 -99.38891357 128.03704407 -99.39733887 126.68838501 C-99.42356348 122.34045472 -99.43886663 117.99251477 -99.453125 113.64453125 C-99.45848445 112.14824734 -99.46386195 110.65196349 -99.46925735 109.1556797 C-99.49088647 102.93201755 -99.50962357 96.70835801 -99.52087975 90.48466778 C-99.53712173 81.56269522 -99.57030459 72.64115799 -99.62728059 63.71934956 C-99.66596912 57.4475207 -99.68551109 51.17580832 -99.69080031 44.90386325 C-99.69445526 41.15713834 -99.70649062 37.41087767 -99.73890305 33.66428185 C-99.77455017 29.48385058 -99.77061567 25.3043559 -99.76318359 21.1237793 C-99.77958893 19.88254807 -99.79599426 18.64131683 -99.81289673 17.36247253 C-99.7519347 9.00875612 -99.7519347 9.00875612 -96.88027954 4.92672729 C-93.27387962 2.61457719 -90.14659928 2.49256886 -85.9921875 2.56640625 C-84.82200073 2.56278831 -84.82200073 2.56278831 -83.62817383 2.55909729 C-81.98416036 2.56007372 -80.34011318 2.57341878 -78.69628906 2.59838867 C-76.18700926 2.63271235 -73.68125172 2.61903713 -71.171875 2.59960938 C-69.57029759 2.60650824 -67.96872922 2.616181 -66.3671875 2.62890625 C-65.62122314 2.62394638 -64.87525879 2.61898651 -64.10668945 2.61387634 C-60.46426556 2.69578504 -58.32023191 3.10824195 -55.19848633 5.04223633 C-53.1796875 7.1953125 -53.1796875 7.1953125 -52.69140625 10.2109375 C-52.77841797 11.81195312 -52.77841797 11.81195312 -52.8671875 13.4453125 C-52.91230469 14.52296875 -52.95742187 15.600625 -53.00390625 16.7109375 C-53.09091797 17.94070313 -53.09091797 17.94070313 -53.1796875 19.1953125 C-52.40367188 18.69902344 -51.62765625 18.20273438 -50.828125 17.69140625 C-34.35051159 7.32899304 -19.59011967 1.2033243 0 0 Z " fill="#FF851C" transform="translate(1255.1796875,1418.8046875)"/>
<path d="M0 0 C3.30692004 4.96038006 2.36896392 10.609665 2.375 16.4375 C2.39949219 17.67822266 2.42398438 18.91894531 2.44921875 20.19726562 C2.45308594 21.38900391 2.45695313 22.58074219 2.4609375 23.80859375 C2.46915527 24.89970459 2.47737305 25.99081543 2.48583984 27.11499023 C1.88914912 30.65825371 0.76709575 31.78819262 -2 34 C-4.98816356 35.49408178 -8.01299888 35.03947831 -11.28125 34.95703125 C-12.77863213 34.93461194 -14.27602899 34.91315999 -15.7734375 34.89257812 C-18.12573534 34.85574725 -20.47727159 34.81307893 -22.82910156 34.75317383 C-36.29945809 34.42626501 -45.44266571 36.28077302 -56 45 C-56.928125 45.70125 -57.85625 46.4025 -58.8125 47.125 C-62.46926774 50.25937235 -63.88407531 51.81890213 -64.37181091 56.78819275 C-64.3860339 58.34302404 -64.38388734 59.89805678 -64.36889648 61.45288086 C-64.37266296 62.30374771 -64.37642944 63.15461456 -64.38031006 64.03126526 C-64.38674009 65.87661068 -64.38641478 67.72198922 -64.38012505 69.56733513 C-64.37101944 72.48868331 -64.38123251 75.40938903 -64.39674377 78.33070374 C-64.43685957 86.63541661 -64.43804491 94.94007941 -64.43579102 103.24487305 C-64.43573993 108.32651297 -64.45490105 113.40780631 -64.48512459 118.48935127 C-64.49595753 121.36616941 -64.48381476 124.24232831 -64.47129822 127.11912537 C-64.48020251 128.88533176 -64.49027685 130.65153277 -64.50170898 132.41772461 C-64.49196548 133.21632904 -64.48222198 134.01493347 -64.47218323 134.83773804 C-64.52080246 138.60215019 -64.8543924 140.77282856 -66.90614319 143.97389221 C-70.62772594 147.57505909 -73.99554446 147.19061073 -78.9296875 147.23828125 C-79.71642853 147.246353 -80.50316956 147.25442474 -81.31375122 147.26274109 C-82.97981564 147.27657904 -84.64590839 147.2873025 -86.31201172 147.29516602 C-88.858294 147.31238701 -91.40328037 147.35627417 -93.94921875 147.40039062 C-95.56769878 147.41051702 -97.18618985 147.41903329 -98.8046875 147.42578125 C-99.5652243 147.44328934 -100.32576111 147.46079742 -101.10934448 147.47883606 C-104.43405746 147.46521307 -106.51295872 147.37029419 -109.20119476 145.32644653 C-111.44006712 142.43084854 -111.50250437 140.93917408 -111.50793457 137.30688477 C-111.51921387 136.14601349 -111.53049316 134.98514221 -111.54211426 133.78909302 C-111.53401733 132.51935638 -111.52592041 131.24961975 -111.51757812 129.94140625 C-111.52299958 128.58771003 -111.53012237 127.23401972 -111.53881836 125.88034058 C-111.55705236 122.20672513 -111.54998421 118.53355906 -111.53730202 114.85993576 C-111.5271746 111.01541686 -111.53656697 107.17093643 -111.54284668 103.32641602 C-111.55012387 96.87020968 -111.54053363 90.41418636 -111.52148438 83.95800781 C-111.49971534 76.49384551 -111.50676667 69.03012023 -111.52879 61.56596851 C-111.54694208 55.15734777 -111.54950331 48.74885859 -111.53903532 42.34022045 C-111.53279927 38.51263961 -111.53196763 34.68526418 -111.54518127 30.85769653 C-111.55673655 27.25914173 -111.54872084 23.66115034 -111.52560425 20.0626564 C-111.51779234 18.11208114 -111.52967588 16.16145823 -111.54211426 14.21090698 C-111.53083496 13.05003571 -111.51955566 11.88916443 -111.50793457 10.69311523 C-111.50642647 9.68433823 -111.50491837 8.67556122 -111.50336456 7.63621521 C-110.85696584 4.25090311 -109.71639048 3.06755496 -107 1 C-104.10135241 0.5899822 -101.58928818 0.4149998 -98.69140625 0.43359375 C-97.48580299 0.42429588 -97.48580299 0.42429588 -96.25584412 0.41481018 C-94.55884002 0.40771801 -92.86176626 0.4108756 -91.16479492 0.42358398 C-88.57404882 0.43743824 -85.98692476 0.40339063 -83.39648438 0.36523438 C-81.74479079 0.36428299 -80.09309269 0.36614304 -78.44140625 0.37109375 C-77.28494347 0.35120644 -77.28494347 0.35120644 -76.1051178 0.33091736 C-72.06727453 0.40048186 -70.21523642 0.82886767 -67.01660156 3.37207031 C-64.80083658 6.25953935 -64.33106505 7.72337371 -64.1875 11.3125 C-64.13980469 12.19550781 -64.09210937 13.07851562 -64.04296875 13.98828125 C-64.02878906 14.65214844 -64.01460937 15.31601563 -64 16 C-63.07960938 15.41992188 -62.15921875 14.83984375 -61.2109375 14.2421875 C-47.38863522 5.65253497 -16.61355558 -11.162816 0 0 Z " fill="#FF851C" transform="translate(967,1421)"/>
<path d="M0 0 C0.90363281 -0.02449219 1.80726563 -0.04898437 2.73828125 -0.07421875 C11.98614233 -0.11413757 19.19574003 2.96819839 25.9609375 9.26171875 C34.2314805 19.03107194 35.12349174 31.91250953 35.0625 44.125 C35.05512817 45.8565332 35.05512817 45.8565332 35.04760742 47.62304688 C34.87862363 59.88693693 33.46281249 72.42606858 25.22265625 82.18359375 C17.2499238 89.70610131 8.28480793 90.94825625 -2.26708984 90.85205078 C-8.54575858 90.63141859 -13.78985244 89.64195021 -19.25 86.375 C-20.1575 85.83875 -21.065 85.3025 -22 84.75 C-32.57675014 73.58565263 -33.75746021 60.27365502 -33.64111328 45.65869141 C-33.62498094 43.2471502 -33.64106017 40.83727284 -33.66015625 38.42578125 C-33.67885539 25.87679636 -32.30219216 16.64314903 -23.25 7.375 C-20.71409122 5.39727987 -18.13801055 3.78502868 -15.25 2.375 C-14.55648437 2.01019531 -13.86296875 1.64539062 -13.1484375 1.26953125 C-8.78333002 -0.07765152 -4.54279018 0.00637137 0 0 Z " fill="#FFFAE9" transform="translate(564.25,1449.625)"/>
<path d="M0 0 C1.47118538 0.0001133 1.47118538 0.0001133 2.97209167 0.00022888 C4.028423 0.00539017 5.08475433 0.01055145 6.1730957 0.01586914 C7.79813774 0.01799156 7.79813774 0.01799156 9.45600891 0.02015686 C12.9203262 0.0257598 16.38457915 0.03831281 19.84887695 0.05102539 C22.19588123 0.05604001 24.54288652 0.06060298 26.88989258 0.06469727 C32.64707887 0.07573019 38.404217 0.09299682 44.16137695 0.11352539 C44.16137695 7.04352539 44.16137695 13.97352539 44.16137695 21.11352539 C31.23862731 27.76309559 20.51772458 32.25230667 5.78637695 32.42602539 C4.97426758 32.4550293 4.1621582 32.4840332 3.32543945 32.51391602 C-2.55347647 32.57515472 -6.93404484 31.42631138 -11.83862305 28.11352539 C-16.2444183 23.48179192 -17.2006076 19.61133632 -17.11987305 13.39477539 C-16.53345917 8.63830728 -13.6987884 5.88977217 -10.27612305 2.80102539 C-6.77016358 0.37382268 -4.15570948 -0.01068306 0 0 Z " fill="#FFFAE9" transform="translate(1340.838623046875,1507.886474609375)"/>
<path d="M0 0 C7.23603681 4.59533643 11.99519708 10.73135338 14.125 19 C14.125 22.3 14.125 25.6 14.125 29 C-6.005 29 -26.135 29 -46.875 29 C-46.875 19.23534949 -45.60628943 11.71403824 -38.65234375 4.5390625 C-28.83018184 -3.9662821 -11.8910274 -5.37840316 0 0 Z " fill="#FFF9E8" transform="translate(1670.875,1452)"/>
</svg>
